<svg width="276" height="295" xmlns="http://www.w3.org/2000/svg" xmlns:xlink="http://www.w3.org/1999/xlink" xml:space="preserve" overflow="hidden"><g transform="translate(-2567 -884)"><path d="M2625 884 2625 1170 2836 1170 2836 962 2759.15 962 2759.15 884 2625 884Z" fill="#E6E6E8" fill-rule="evenodd"/><path d="M2758 963 2758 884 2836 963Z" fill="#AEAEAE" fill-rule="evenodd"/><rect x="2666.5" y="974.5" width="86" height="15.9998" stroke="#D1D1D1" stroke-width="6.875" stroke-miterlimit="8" fill="none"/><rect x="2752.5" y="974.5" width="67" height="15.9998" stroke="#D1D1D1" stroke-width="6.875" stroke-miterlimit="8" fill="none"/><rect x="2666.5" y="991.5" width="86" height="16.0002" stroke="#D1D1D1" stroke-width="6.875" stroke-miterlimit="8" fill="none"/><rect x="2752.5" y="991.5" width="67" height="16.0002" stroke="#D1D1D1" stroke-width="6.875" stroke-miterlimit="8" fill="none"/><rect x="2666.5" y="1007.5" width="86" height="15.9998" stroke="#D1D1D1" stroke-width="6.875" stroke-miterlimit="8" fill="none"/><rect x="2752.5" y="1007.5" width="67" height="15.9998" stroke="#D1D1D1" stroke-width="6.875" stroke-miterlimit="8" fill="none"/><text fill="#AEAEAE" font-family="Fira Sans,Fira Sans_MSFontService,sans-serif" font-weight="400" font-size="14" transform="matrix(1 0 0 1 2673.55 1056)">func</text><text fill="#AEAEAE" font-family="Fira Sans,Fira Sans_MSFontService,sans-serif" font-weight="400" font-size="14" transform="matrix(1 0 0 1 2700.48 1056)">(x)</text><text fill="#AEAEAE" font-family="Fira Sans,Fira Sans_MSFontService,sans-serif" font-weight="400" font-size="14" transform="matrix(1 0 0 1 2719.96 1056)">{</text><text fill="#AEAEAE" font-family="Fira Sans,Fira Sans_MSFontService,sans-serif" font-weight="400" font-size="14" transform="matrix(1 0 0 1 2724.54 1056)">}</text><path d="M2653.5 997.5 2639.5 997.5 2639.5 1050.32 2653.03 1050.32 2639.5 1050.32 2639.5 1154.5 2651.17 1154.5" stroke="#AEAEAE" stroke-width="6.875" stroke-miterlimit="8" fill="none" fill-rule="evenodd"/><text fill="#AEAEAE" font-family="Fira Sans,Fira Sans_MSFontService,sans-serif" font-weight="400" font-size="14" transform="matrix(1 0 0 1 2665.35 1162)">“lorem ipsum…”</text><path d="M2589.5 1077.67C2589.5 1070.95 2594.95 1065.5 2601.67 1065.5L2809.33 1065.5C2816.05 1065.5 2821.5 1070.95 2821.5 1077.67L2821.5 1126.33C2821.5 1133.05 2816.05 1138.5 2809.33 1138.5L2601.67 1138.5C2594.95 1138.5 2589.5 1133.05 2589.5 1126.33Z" stroke="#EEB500" stroke-width="6.875" stroke-miterlimit="8" fill="#FFC000" fill-rule="evenodd"/><text fill="#FFFFFF" font-family="Fira Code SemiBold,Fira Code SemiBold_MSFontService,sans-serif" font-weight="600" font-size="64" transform="matrix(1 0 0 1 2606.07 1121)">eData</text></g></svg>